<?xml version="1.0" encoding="UTF-8" standalone="no"?>
<svg
   data-v-5f19e91b=""
   width="488.28955"
   height="92.958305"
   viewBox="0 0 488.28955 92.958305"
   version="1.1"
   id="svg12"
   sodipodi:docname="icon-left-font-dark.svg"
   inkscape:version="1.2.1 (ef4d3fba62, 2022-07-19, custom)"
   xmlns:inkscape="http://www.inkscape.org/namespaces/inkscape"
   xmlns:sodipodi="http://sodipodi.sourceforge.net/DTD/sodipodi-0.dtd"
   xmlns="http://www.w3.org/2000/svg"
   xmlns:svg="http://www.w3.org/2000/svg">
  <defs
     id="defs16">
    <path
       id="a"
       d="m 82.933,164.784 h 196.875 v 69.231 H 82.933 Z" />
  </defs>
  <sodipodi:namedview
     id="namedview14"
     pagecolor="#ffffff"
     bordercolor="#666666"
     borderopacity="1.0"
     inkscape:pageshadow="2"
     inkscape:pageopacity="0.0"
     inkscape:pagecheckerboard="0"
     showgrid="false"
     fit-margin-top="2"
     fit-margin-left="2"
     fit-margin-right="2"
     fit-margin-bottom="2"
     inkscape:zoom="1.1020619"
     inkscape:cx="170.58933"
     inkscape:cy="48.545368"
     inkscape:window-width="1846"
     inkscape:window-height="1016"
     inkscape:window-x="74"
     inkscape:window-y="27"
     inkscape:window-maximized="1"
     inkscape:current-layer="svg12"
     inkscape:showpageshadow="2"
     inkscape:deskcolor="#d1d1d1" />
  <!---->
  <!---->
  <!---->
  <g
     data-v-5f19e91b=""
     id="35fa3215-a46c-2dc7-0ca7-44149903aade"
     fill="#000000"
     transform="matrix(4.5696877,0,0,4.5696877,97.95749,-9.0586442)"
     style="fill:#fd2d01;fill-opacity:1">
    <path
       d="m 5.41,12.67 v 0 q -2.18,0 -3.65,-1.47 v 0 0 Q 0.29,9.73 0.29,7.53 v 0 0 q 0,-2.16 1.47,-3.64 v 0 0 Q 3.23,2.42 5.41,2.42 v 0 0 q 2.19,0 3.76,1.37 v 0 L 7.81,5.28 v 0 Q 6.76,4.46 5.41,4.46 v 0 0 Q 4.03,4.47 3.18,5.33 v 0 0 Q 2.34,6.18 2.34,7.51 v 0 0 q 0,1.43 0.85,2.27 v 0 0 q 0.85,0.84 2.23,0.84 v 0 0 q 1.11,0 1.7,-0.43 v 0 -1.76 L 5.76,8.44 V 6.52 h 3.41 v 4.79 0 q -1.56,1.36 -3.76,1.36 z m 7.43,-6.84 v 0.76 0 q 0.74,-0.75 1.79,-0.75 v 0 0 q 0.33,0 0.63,0.05 v 0 l -0.3,1.89 v 0 Q 14.63,7.48 14.01,7.46 v 0 0 q -0.7,0.05 -1.17,1.01 v 0 4.2 H 10.93 V 6.04 Z m 6.77,6.91 v 0 q -1.49,0 -2.49,-1 v 0 0 q -0.99,-1 -0.99,-2.48 v 0 0 q 0,-1.49 0.99,-2.49 v 0 0 q 1,-1 2.49,-1 v 0 0 q 1.49,0 2.49,1 v 0 0 q 1,1 1,2.49 v 0 0 q 0,1.49 -1,2.48 v 0 0 q -1,1 -2.49,1 z m 0,-1.65 v 0 0 q 0.77,0 1.26,-0.53 v 0 0 q 0.49,-0.52 0.49,-1.3 v 0 0 q 0,-0.78 -0.49,-1.3 v 0 0 Q 20.38,7.43 19.6,7.43 v 0 0 q -0.77,0 -1.26,0.53 v 0 0 q -0.48,0.52 -0.48,1.3 v 0 0 q 0,0.78 0.48,1.3 v 0 0 q 0.49,0.53 1.27,0.53 z m 8.91,-0.84 v 0 -4.42 h 1.91 v 6.84 h -1.91 v -0.62 0 q -0.69,0.62 -1.64,0.62 v 0 0 q -1.3,0 -1.98,-0.79 v 0 0 q -0.69,-0.79 -0.69,-1.81 v 0 -4.24 h 1.92 v 3.76 0 q 0,0.68 0.34,1.06 v 0 0 q 0.34,0.38 1.03,0.4 v 0 0 q 0.6,-0.04 1.02,-0.8 z m 5.45,5.3 -1.91,-0.01 v -9.5 l 1.91,-0.21 v 0.55 0 q 0.77,-0.55 1.51,-0.55 v 0 0 q 1.57,0 2.49,1.03 v 0 0 q 0.93,1.02 0.93,2.39 v 0 0 q 0,1.37 -0.93,2.39 v 0 0 q -0.92,1.03 -2.49,1.03 v 0 0 Q 34.45,12.6 33.97,12.11 v 0 z m 0,-6.92 v 0 1.11 0 q 0.14,1.15 1.44,1.35 v 0 0 q 1.64,-0.13 1.85,-1.7 v 0 0 Q 37.19,7.47 35.41,7.4 v 0 0 q -1.3,0.21 -1.44,1.23 z m 9.38,4.11 v 0 q -1.49,0 -2.48,-1 v 0 0 q -1,-1 -1,-2.48 v 0 0 q 0,-1.49 1,-2.49 v 0 0 q 0.99,-1 2.48,-1 v 0 0 q 1.49,0 2.49,1 v 0 0 q 1,1 1,2.49 v 0 0 q 0,1.49 -1,2.48 v 0 0 q -1,1 -2.49,1 z m 0,-1.65 v 0 0 q 0.78,0 1.26,-0.53 v 0 0 q 0.49,-0.52 0.49,-1.3 v 0 0 q 0,-0.78 -0.49,-1.3 v 0 0 Q 44.13,7.43 43.34,7.43 v 0 0 q -0.77,0 -1.26,0.53 v 0 0 Q 41.6,8.48 41.6,9.26 v 0 0 q 0,0.78 0.48,1.3 v 0 0 q 0.49,0.53 1.27,0.53 z M 50.03,8.3 v 0 4.37 H 48.11 V 6.04 l 1.92,-0.21 v 0.61 0 q 0.64,-0.6 1.64,-0.6 v 0 0 q 1.29,0 1.98,0.78 v 0 0 Q 54.4,5.84 55.9,5.84 v 0 0 q 1.3,0 1.99,0.78 v 0 0 q 0.68,0.79 0.68,1.82 v 0 4.23 h -1.91 v -3.76 0 q 0,-0.68 -0.31,-1.06 v 0 0 q -0.31,-0.37 -1,-0.39 v 0 0 Q 54.78,7.5 54.37,8.21 v 0 0 q -0.04,0.21 -0.04,0.43 v 0 4.03 h -1.91 v -3.76 0 q 0,-0.68 -0.31,-1.06 v 0 0 q -0.31,-0.37 -1,-0.39 v 0 0 Q 50.48,7.5 50.03,8.3 Z M 61.14,7.82 60.39,6.66 v 0 q 1.3,-0.82 3.01,-0.82 v 0 0 q 1.23,0 1.94,0.68 v 0 0 q 0.72,0.69 0.72,2.05 v 0 4.1 h -1.91 v -0.54 0 q -0.84,0.54 -1.51,0.54 v 0 0 q -1.36,0 -2.05,-0.58 v 0 0 q -0.68,-0.58 -0.68,-1.6 v 0 0 q 0,-0.96 0.65,-1.71 v 0 0 Q 61.2,8.03 62.64,8.03 v 0 0 q 0.67,0 1.51,0.41 v 0 -0.21 0 Q 64.13,7.48 63.05,7.41 v 0 0 q -1.23,0 -1.91,0.41 z m 3.01,2.8 v 0 -0.77 0 Q 63.88,9.32 62.85,9.32 v 0 0 q -1.23,0.14 -1.3,0.96 v 0 0 q 0.07,0.81 1.3,0.88 v 0 0 q 1.03,0 1.3,-0.54 z m 5.54,-2.29 v 0 4.34 H 67.77 V 6.04 l 1.92,-0.21 v 0.62 0 q 0.69,-0.61 1.64,-0.61 v 0 0 q 1.3,0 1.98,0.78 v 0 0 q 0.68,0.79 0.68,1.82 v 0 4.23 h -1.91 v -3.76 0 q 0,-0.68 -0.34,-1.06 v 0 0 Q 71.39,7.48 70.7,7.46 v 0 0 Q 70.11,7.5 69.69,8.33 Z m 7.82,4.34 H 75.6 V 5.83 h 1.91 z M 75.53,4.2 v 0 0 q 0,0.41 0.27,0.68 v 0 0 q 0.28,0.27 0.76,0.27 v 0 0 q 0.47,0 0.75,-0.27 v 0 0 Q 77.58,4.61 77.58,4.2 v 0 0 q 0,-0.41 -0.27,-0.69 v 0 0 Q 77.03,3.23 76.54,3.23 v 0 0 q -0.46,0 -0.74,0.28 v 0 0 Q 75.53,3.79 75.53,4.2 Z m 4.53,3.62 -0.75,-1.16 v 0 q 1.3,-0.82 3.01,-0.82 v 0 0 q 1.23,0 1.95,0.68 v 0 0 q 0.71,0.69 0.71,2.05 v 0 4.1 h -1.91 v -0.54 0 q -0.83,0.54 -1.5,0.54 v 0 0 q -1.37,0 -2.05,-0.58 v 0 0 q -0.69,-0.58 -0.69,-1.6 v 0 0 q 0,-0.96 0.65,-1.71 v 0 0 q 0.64,-0.75 2.09,-0.75 v 0 0 q 0.66,0 1.5,0.41 v 0 -0.21 0 Q 83.06,7.48 81.98,7.41 v 0 0 q -1.23,0 -1.92,0.41 z m 3.01,2.8 v 0 -0.77 0 Q 82.8,9.32 81.77,9.32 v 0 0 q -1.23,0.14 -1.3,0.96 v 0 0 q 0.07,0.81 1.3,0.88 v 0 0 q 1.03,0 1.3,-0.54 z"
       id="path2"
       style="fill:#fd2d01;fill-opacity:1" />
  </g>
  <!---->
  <g
     data-v-5f19e91b=""
     id="c3a0a99d-5b99-a49f-d46f-4168a2d07e26"
     transform="matrix(0.92888913,0,0,0.92888913,184.80538,-190.35211)"
     stroke="none"
     fill="black"
     style="fill:#ffd7d7;fill-opacity:1">
    <switch
       id="switch9"
       style="fill:#ffd7d7;fill-opacity:1">
      <g
         id="g7"
         style="fill:#ffd7d7;fill-opacity:1">
        <path
           d="m -155,298.8 c 11.2,0 21.7,-4.3 29.6,-12.2 7.9,-7.9 12.2,-18.4 12.2,-29.6 0,-11.2 -4.3,-21.7 -12.2,-29.6 -7.9,-7.9 -18.4,-12.2 -29.6,-12.2 -11.2,0 -21.7,4.3 -29.6,12.2 -7.9,7.9 -12.2,18.4 -12.2,29.6 0,11.2 4.3,21.7 12.2,29.6 7.9,7.9 18.4,12.2 29.6,12.2 z m 2.4,-7.1 c -0.8,0.1 -1.6,0.1 -2.4,0.1 -1.1,0 -2.2,-0.1 -3.3,-0.2 -3.6,-5.6 -6.3,-11.6 -7.9,-17.9 h 17.7 c 0.6,1.5 1.7,2.9 3,3.8 -1.7,5 -4.1,9.7 -7.1,14.2 z m 9.5,-2 c 1.9,-3.5 3.4,-7 4.6,-10.7 2.9,-0.6 5.2,-2.6 6.3,-5.3 h 7.7 c -4,7.3 -10.7,13 -18.6,16 z m 22.8,-32.7 c 0,3.3 -0.5,6.5 -1.3,9.6 h -10.8 c -0.6,-1.3 -1.6,-2.5 -2.8,-3.4 0.2,-2.2 0.3,-4.4 0.3,-6.6 0,-3.1 -0.2,-6.2 -0.6,-9.2 h 13.8 c 1,3 1.4,6.3 1.4,9.6 z m -4.2,-16.7 h -12.2 c -1.3,-5.5 -3.2,-10.7 -5.8,-15.7 7.6,2.9 14,8.6 18,15.7 z m -17.4,16.3 c 0,1.7 -0.1,3.4 -0.2,5.1 -2.8,0.6 -5.1,2.4 -6.2,4.9 h -19.3 c -0.4,-3 -0.7,-6.1 -0.7,-9.1 0,-1.9 0.1,-3.8 0.3,-5.7 2.6,-0.5 4.7,-2.2 6,-4.4 h 19.5 c 0.4,3 0.6,6.1 0.6,9.2 z m -15.7,-34.2 c 0.9,-0.1 1.8,-0.1 2.6,-0.1 1,0 2,0 3,0.1 3.6,5.6 6.3,11.6 7.9,17.9 h -17.4 c -0.6,-1.7 -1.7,-3.2 -3.1,-4.3 1.8,-4.8 4.1,-9.3 7,-13.6 z m -9.5,2 c -1.7,3.2 -3.2,6.6 -4.4,10 -3.1,0.6 -5.6,2.9 -6.6,5.8 h -7.3 c 3.9,-7.1 10.4,-12.8 18.3,-15.8 z m -22.6,32.6 c 0,-3.3 0.5,-6.6 1.4,-9.6 h 10.9 c 0.6,1.1 1.5,2.1 2.5,2.9 -0.2,2.4 -0.4,4.8 -0.4,7.2 0,3.1 0.2,6.1 0.6,9.1 h -13.6 c -1,-3.1 -1.4,-6.3 -1.4,-9.6 z m 16.2,16.6 c 1.3,5.4 3.2,10.7 5.8,15.7 -7.6,-3 -13.9,-8.6 -17.8,-15.7 z"
           id="path5"
           style="fill:#ffd7d7;fill-opacity:1" />
      </g>
    </switch>
  </g>
  <g
     aria-label="SOCIAL NETWORK"
     transform="matrix(2.0423208,0,0,2.0423208,-67.399637,-279.10655)"
     id="text19"
     style="font-size:17.5px;line-height:125%;letter-spacing:2.79px;word-spacing:0;white-space:pre;shape-inside:url(#a);fill:#ffffff;stroke-width:1px">
    <path
       d="m 90.773594,170.18195 q -0.07875,0.14875 -0.2275,0.14875 -0.11375,0 -0.2975,-0.1575 -0.175,-0.16625 -0.48125,-0.35875 -0.30625,-0.20125 -0.77,-0.3675 -0.455,-0.16625 -1.12875,-0.16625 -0.67375,0 -1.19,0.1925 -0.5075,0.1925 -0.8575,0.525 -0.34125,0.3325 -0.525,0.77 -0.175,0.4375 -0.175,0.91875 0,0.63 0.2625,1.04125 0.27125,0.41125 0.70875,0.7 0.4375,0.28875 0.98875,0.49 0.56,0.1925 1.14625,0.385 0.58625,0.1925 1.1375,0.42875 0.56,0.2275 0.9975,0.5775 0.4375,0.35 0.7,0.86625 0.27125,0.5075 0.27125,1.26875 0,0.77875 -0.27125,1.47 -0.2625,0.6825 -0.77,1.19 -0.5075,0.5075 -1.2425,0.805 -0.735,0.28875 -1.68,0.28875 -1.225,0 -2.10875,-0.42875 -0.88375,-0.4375 -1.54875,-1.19 l 0.245,-0.385 q 0.105,-0.13125 0.245,-0.13125 0.07875,0 0.20125,0.105 0.1225,0.105 0.2975,0.2625 0.175,0.14875 0.42,0.3325 0.245,0.175 0.56875,0.3325 0.32375,0.14875 0.74375,0.25375 0.42,0.105 0.95375,0.105 0.735,0 1.3125,-0.21875 0.5775,-0.2275 0.97125,-0.6125 0.4025,-0.385 0.6125,-0.91 0.21,-0.53375 0.21,-1.1375 0,-0.65625 -0.27125,-1.07625 -0.2625,-0.42875 -0.7,-0.70875 -0.4375,-0.28875 -0.9975,-0.48125 -0.55125,-0.1925 -1.1375,-0.37625 -0.58625,-0.18375 -1.14625,-0.41125 -0.55125,-0.2275 -0.98875,-0.5775 -0.4375,-0.35875 -0.70875,-0.88375 -0.2625,-0.53375 -0.2625,-1.33 0,-0.62125 0.23625,-1.19875 0.23625,-0.5775 0.69125,-1.015 0.455,-0.44625 1.12,-0.70875 0.67375,-0.27125 1.53125,-0.27125 0.9625,0 1.72375,0.30625 0.77,0.30625 1.4,0.93625 z"
       style="font-weight:300;font-family:Lato;-inkscape-font-specification:'Lato Light'"
       id="path253" />
    <path
       d="m 107.91359,174.8632 q 0,1.435 -0.42875,2.6075 -0.42875,1.16375 -1.2075,1.995 -0.77875,0.8225 -1.8725,1.2775 -1.085,0.44625 -2.3975,0.44625 -1.3125,0 -2.397499,-0.44625 -1.085,-0.455 -1.86375,-1.2775 -0.77875,-0.83125 -1.2075,-1.995 -0.42875,-1.1725 -0.42875,-2.6075 0,-1.42625 0.42875,-2.59 0.42875,-1.1725 1.2075,-1.995 0.77875,-0.83125 1.86375,-1.28625 1.084999,-0.455 2.397499,-0.455 1.3125,0 2.3975,0.455 1.09375,0.44625 1.8725,1.2775 0.77875,0.83125 1.2075,2.00375 0.42875,1.16375 0.42875,2.59 z m -0.9275,0 q 0,-1.295 -0.35875,-2.3275 -0.35875,-1.0325 -1.015,-1.75 -0.65625,-0.7175 -1.575,-1.09375 -0.91875,-0.385 -2.03,-0.385 -1.1025,0 -2.021249,0.385 -0.91875,0.37625 -1.58375,1.09375 -0.65625,0.7175 -1.02375,1.75 -0.35875,1.0325 -0.35875,2.3275 0,1.30375 0.35875,2.33625 0.3675,1.02375 1.02375,1.74125 0.665,0.7175 1.58375,1.09375 0.918749,0.37625 2.021249,0.37625 1.11125,0 2.03,-0.37625 0.91875,-0.37625 1.575,-1.09375 0.65625,-0.7175 1.015,-1.74125 0.35875,-1.0325 0.35875,-2.33625 z"
       style="font-weight:300;font-family:Lato;-inkscape-font-specification:'Lato Light'"
       id="path255" />
    <path
       d="m 122.48981,178.9757 q 0.0875,0 0.14875,0.0613 l 0.35,0.37625 q -0.385,0.41125 -0.84,0.74375 -0.44625,0.32375 -0.98875,0.56 -0.53375,0.2275 -1.18125,0.35 -0.63875,0.13125 -1.40875,0.13125 -1.28625,0 -2.3625,-0.44625 -1.0675,-0.455 -1.8375,-1.2775 -0.77,-0.83125 -1.19875,-2.00375 -0.42,-1.1725 -0.42,-2.6075 0,-1.40875 0.4375,-2.5725 0.4375,-1.16375 1.225,-1.995 0.7875,-0.84 1.89,-1.295 1.1025,-0.46375 2.4325,-0.46375 1.26875,0 2.24875,0.39375 0.98,0.39375 1.785,1.11125 l -0.27125,0.39375 q -0.07,0.105 -0.21875,0.105 -0.105,0 -0.34125,-0.1925 -0.23625,-0.1925 -0.65625,-0.42 -0.42,-0.23625 -1.05,-0.42875 -0.62125,-0.1925 -1.49625,-0.1925 -1.12,0 -2.05625,0.385 -0.9275,0.385 -1.60125,1.1025 -0.665,0.7175 -1.04125,1.75 -0.37625,1.0325 -0.37625,2.31875 0,1.3125 0.37625,2.345 0.385,1.0325 1.05,1.75 0.665,0.70875 1.56625,1.09375 0.91,0.37625 1.96,0.37625 0.665,0 1.18125,-0.0875 0.525,-0.0875 0.9625,-0.2625 0.4375,-0.175 0.81375,-0.42875 0.37625,-0.25375 0.74375,-0.595 0.0438,-0.035 0.0875,-0.0525 0.0438,-0.0263 0.0875,-0.0263 z"
       style="font-weight:300;font-family:Lato;-inkscape-font-specification:'Lato Light'"
       id="path257" />
    <path
       d="m 129.07729,181.0582 h -0.90125 v -12.38125 h 0.90125 z"
       style="font-weight:300;font-family:Lato;-inkscape-font-specification:'Lato Light'"
       id="path259" />
    <path
       d="m 142.20104,176.5607 -2.52,-6.25625 q -0.13125,-0.30625 -0.25375,-0.735 -0.0525,0.21 -0.11375,0.4025 -0.0613,0.18375 -0.13125,0.34125 l -2.52,6.2475 z m 2.73875,4.4975 h -0.69125 q -0.1225,0 -0.20125,-0.0613 -0.0788,-0.07 -0.1225,-0.175 l -1.4525,-3.59625 h -6.08125 l -1.4525,3.59625 q -0.035,0.0963 -0.1225,0.16625 -0.0875,0.07 -0.21,0.07 h -0.6825 l 5.06625,-12.38125 h 0.88375 z"
       style="font-weight:300;font-family:Lato;-inkscape-font-specification:'Lato Light'"
       id="path261" />
    <path
       d="m 156.54976,180.29695 v 0.76125 h -6.76375 v -12.38125 h 0.90125 v 11.62 z"
       style="font-weight:300;font-family:Lato;-inkscape-font-specification:'Lato Light'"
       id="path263" />
    <path
       d="m 178.01096,168.67695 v 12.38125 h -0.42 q -0.11375,0 -0.1925,-0.035 -0.07,-0.0437 -0.14,-0.14 l -8.04125,-10.745 q 0.0263,0.2625 0.0263,0.49875 v 10.42125 h -0.7875 v -12.38125 h 0.44625 q 0.1225,0 0.18375,0.035 0.07,0.0263 0.14875,0.13125 l 8.02375,10.71875 q -0.0263,-0.2625 -0.0263,-0.49875 v -10.38625 z"
       style="font-weight:300;font-family:Lato;-inkscape-font-specification:'Lato Light'"
       id="path265" />
    <path
       d="m 191.89595,180.31445 -0.0175,0.74375 h -7.42 v -12.38125 h 7.42 v 0.74375 h -6.51875 v 5.005 h 5.425 v 0.72625 h -5.425 v 5.1625 z"
       style="font-weight:300;font-family:Lato;-inkscape-font-specification:'Lato Light'"
       id="path267" />
    <path
       d="m 205.44844,169.4382 h -4.34875 v 11.62 h -0.90125 v -11.62 h -4.375 v -0.76125 h 9.625 z"
       style="font-weight:300;font-family:Lato;-inkscape-font-specification:'Lato Light'"
       id="path269" />
    <path
       d="m 225.86967,168.67695 -3.89375,12.38125 h -0.805 l -3.6575,-10.745 q -0.07,-0.21875 -0.1225,-0.455 -0.0525,0.23625 -0.1225,0.455 l -3.66625,10.745 h -0.79625 l -3.9025,-12.38125 h 0.74375 q 0.25375,0 0.32375,0.23625 l 3.12375,10.17625 q 0.0962,0.35 0.175,0.79625 0.0438,-0.2275 0.0875,-0.42 0.0438,-0.20125 0.105,-0.37625 l 3.5,-10.17625 q 0.035,-0.0962 0.1225,-0.16625 0.0875,-0.07 0.21,-0.07 h 0.245 q 0.1225,0 0.20125,0.07 0.0788,0.0613 0.1225,0.16625 l 3.5,10.17625 q 0.0613,0.16625 0.105,0.3675 0.0525,0.20125 0.0962,0.42 0.0437,-0.21875 0.0787,-0.41125 0.0438,-0.20125 0.0875,-0.37625 l 3.12375,-10.17625 q 0.0263,-0.0962 0.11375,-0.16625 0.0962,-0.07 0.21875,-0.07 z"
       style="font-weight:300;font-family:Lato;-inkscape-font-specification:'Lato Light'"
       id="path271" />
    <path
       d="m 241.82837,174.8632 q 0,1.435 -0.42875,2.6075 -0.42875,1.16375 -1.2075,1.995 -0.77875,0.8225 -1.8725,1.2775 -1.085,0.44625 -2.3975,0.44625 -1.3125,0 -2.3975,-0.44625 -1.085,-0.455 -1.86375,-1.2775 -0.77875,-0.83125 -1.2075,-1.995 -0.42875,-1.1725 -0.42875,-2.6075 0,-1.42625 0.42875,-2.59 0.42875,-1.1725 1.2075,-1.995 0.77875,-0.83125 1.86375,-1.28625 1.085,-0.455 2.3975,-0.455 1.3125,0 2.3975,0.455 1.09375,0.44625 1.8725,1.2775 0.77875,0.83125 1.2075,2.00375 0.42875,1.16375 0.42875,2.59 z m -0.9275,0 q 0,-1.295 -0.35875,-2.3275 -0.35875,-1.0325 -1.015,-1.75 -0.65625,-0.7175 -1.575,-1.09375 -0.91875,-0.385 -2.03,-0.385 -1.1025,0 -2.02125,0.385 -0.91875,0.37625 -1.58375,1.09375 -0.65625,0.7175 -1.02375,1.75 -0.35875,1.0325 -0.35875,2.3275 0,1.30375 0.35875,2.33625 0.3675,1.02375 1.02375,1.74125 0.665,0.7175 1.58375,1.09375 0.91875,0.37625 2.02125,0.37625 1.11125,0 2.03,-0.37625 0.91875,-0.37625 1.575,-1.09375 0.65625,-0.7175 1.015,-1.74125 0.35875,-1.0325 0.35875,-2.33625 z"
       style="font-weight:300;font-family:Lato;-inkscape-font-specification:'Lato Light'"
       id="path273" />
    <path
       d="m 250.51584,174.7932 q 0.8225,0 1.47,-0.1925 0.65625,-0.20125 1.1025,-0.56875 0.455,-0.3675 0.69125,-0.88375 0.23625,-0.51625 0.23625,-1.16375 0,-1.32125 -0.86625,-1.96 -0.8575,-0.63875 -2.51125,-0.63875 h -2.26625 v 5.4075 z m 5.495,6.265 h -0.77 q -0.14875,0 -0.25375,-0.0437 -0.0962,-0.0525 -0.18375,-0.18375 l -3.9725,-5.0225 q -0.07,-0.0962 -0.14875,-0.16625 -0.07,-0.07 -0.16625,-0.105 -0.0875,-0.0437 -0.21875,-0.0613 -0.1225,-0.0175 -0.30625,-0.0175 h -1.61875 v 5.6 h -0.90125 v -12.38125 h 3.1675 q 2.135,0 3.19375,0.83125 1.0675,0.8225 1.0675,2.42375 0,0.70875 -0.245,1.295 -0.245,0.58625 -0.70875,1.0325 -0.455,0.4375 -1.11125,0.7175 -0.6475,0.28 -1.46125,0.37625 0.21,0.13125 0.37625,0.35 z"
       style="font-weight:300;font-family:Lato;-inkscape-font-specification:'Lato Light'"
       id="path275" />
    <path
       d="m 261.78457,174.3907 h 0.735 q 0.16625,0 0.28875,-0.009 0.1225,-0.0175 0.21875,-0.0525 0.105,-0.035 0.18375,-0.0962 0.0875,-0.07 0.18375,-0.16625 l 4.99625,-5.13625 q 0.13125,-0.14875 0.25375,-0.20125 0.13125,-0.0525 0.30625,-0.0525 h 0.7175 l -5.4075,5.55625 q -0.16625,0.175 -0.2975,0.27125 -0.1225,0.0962 -0.28,0.1575 0.18375,0.0525 0.3325,0.16625 0.14875,0.105 0.2975,0.28 l 5.69625,5.95 h -0.72625 q -0.2275,0 -0.3325,-0.0525 -0.0962,-0.0613 -0.1925,-0.18375 l -5.2325,-5.355 q -0.0962,-0.0962 -0.18375,-0.16625 -0.0787,-0.07 -0.18375,-0.11375 -0.0962,-0.0525 -0.23625,-0.07 -0.13125,-0.0263 -0.34125,-0.0263 h -0.79625 v 5.9675 h -0.90125 v -12.38125 h 0.90125 z"
       style="font-weight:300;font-family:Lato;-inkscape-font-specification:'Lato Light'"
       id="path277" />
  </g>
</svg>
